<?xml version="1.0" encoding="utf-8" standalone="no"?>
<!DOCTYPE svg PUBLIC "-//W3C//DTD SVG 1.1//EN"
  "http://www.w3.org/Graphics/SVG/1.1/DTD/svg11.dtd">
<svg xmlns:xlink="http://www.w3.org/1999/xlink" width="446.4pt" height="302.4pt" viewBox="0 0 446.4 302.4" xmlns="http://www.w3.org/2000/svg" version="1.1">
 <metadata>
  <rdf:RDF xmlns:dc="http://purl.org/dc/elements/1.1/" xmlns:cc="http://creativecommons.org/ns#" xmlns:rdf="http://www.w3.org/1999/02/22-rdf-syntax-ns#">
   <cc:Work>
    <dc:type rdf:resource="http://purl.org/dc/dcmitype/StillImage"/>
    <dc:date>2022-08-11T16:04:48.207200</dc:date>
    <dc:format>image/svg+xml</dc:format>
    <dc:creator>
     <cc:Agent>
      <dc:title>Matplotlib v3.5.2, https://matplotlib.org/</dc:title>
     </cc:Agent>
    </dc:creator>
   </cc:Work>
  </rdf:RDF>
 </metadata>
 <defs>
  <style type="text/css">*{stroke-linejoin: round; stroke-linecap: butt}</style>
 </defs>
 <g id="figure_1">
  <g id="patch_1">
   <path d="M 0 302.4 
L 446.4 302.4 
L 446.4 0 
L 0 0 
z
" style="fill: #ffffff"/>
  </g>
  <g id="axes_1">
   <g id="LineCollection_1">
    <path d="M 215.717444 80.601877 
L 215.717444 97.747135 
" clip-path="url(#p62c5a5e5a7)" style="fill: none; stroke: #000000"/>
    <path d="M 215.717444 80.601877 
L 213.579571 66.482252 
" clip-path="url(#p62c5a5e5a7)" style="fill: none; stroke: #000000"/>
    <path d="M 215.717444 97.747135 
L 217.855317 98.75568 
" clip-path="url(#p62c5a5e5a7)" style="fill: none; stroke: #000000"/>
    <path d="M 215.717444 97.747135 
L 162.270619 95.730046 
" clip-path="url(#p62c5a5e5a7)" style="fill: none; stroke: #000000"/>
    <path d="M 215.717444 32.191736 
L 213.579571 40.260092 
" clip-path="url(#p62c5a5e5a7)" style="fill: none; stroke: #000000"/>
    <path d="M 213.579571 40.260092 
L 213.579571 66.482252 
" clip-path="url(#p62c5a5e5a7)" style="fill: none; stroke: #000000"/>
    <path d="M 217.855317 98.75568 
L 273.440016 94.721502 
" clip-path="url(#p62c5a5e5a7)" style="fill: none; stroke: #000000"/>
    <path d="M 217.855317 98.75568 
L 215.717444 114.892394 
" clip-path="url(#p62c5a5e5a7)" style="fill: none; stroke: #000000"/>
    <path d="M 273.440016 94.721502 
L 401.712397 142.123098 
" clip-path="url(#p62c5a5e5a7)" style="fill: none; stroke: #000000"/>
    <path d="M 215.717444 114.892394 
L 217.855317 151.2 
" clip-path="url(#p62c5a5e5a7)" style="fill: none; stroke: #000000"/>
    <path d="M 217.855317 151.2 
L 245.647667 168.345258 
" clip-path="url(#p62c5a5e5a7)" style="fill: none; stroke: #000000"/>
    <path d="M 217.855317 151.2 
L 192.200841 167.336714 
" clip-path="url(#p62c5a5e5a7)" style="fill: none; stroke: #000000"/>
    <path d="M 245.647667 168.345258 
L 277.715762 270.208264 
" clip-path="url(#p62c5a5e5a7)" style="fill: none; stroke: #000000"/>
    <path d="M 192.200841 167.336714 
L 164.408492 268.191175 
" clip-path="url(#p62c5a5e5a7)" style="fill: none; stroke: #000000"/>
    <path d="M 162.270619 95.730046 
L 44.687603 140.106009 
" clip-path="url(#p62c5a5e5a7)" style="fill: none; stroke: #000000"/>
   </g>
   <g id="PathCollection_1">
    <defs>
     <path id="me0014f8c7c" d="M 0 1.581139 
C 0.419323 1.581139 0.821528 1.41454 1.118034 1.118034 
C 1.41454 0.821528 1.581139 0.419323 1.581139 0 
C 1.581139 -0.419323 1.41454 -0.821528 1.118034 -1.118034 
C 0.821528 -1.41454 0.419323 -1.581139 0 -1.581139 
C -0.419323 -1.581139 -0.821528 -1.41454 -1.118034 -1.118034 
C -1.41454 -0.821528 -1.581139 -0.419323 -1.581139 0 
C -1.581139 0.419323 -1.41454 0.821528 -1.118034 1.118034 
C -0.821528 1.41454 -0.419323 1.581139 0 1.581139 
z
" style="stroke: #1f78b4"/>
    </defs>
    <g clip-path="url(#p62c5a5e5a7)">
     <use xlink:href="#me0014f8c7c" x="215.717444" y="80.601877" style="fill: #1f78b4; stroke: #1f78b4"/>
     <use xlink:href="#me0014f8c7c" x="215.717444" y="97.747135" style="fill: #1f78b4; stroke: #1f78b4"/>
     <use xlink:href="#me0014f8c7c" x="215.717444" y="32.191736" style="fill: #1f78b4; stroke: #1f78b4"/>
     <use xlink:href="#me0014f8c7c" x="213.579571" y="40.260092" style="fill: #1f78b4; stroke: #1f78b4"/>
     <use xlink:href="#me0014f8c7c" x="213.579571" y="66.482252" style="fill: #1f78b4; stroke: #1f78b4"/>
     <use xlink:href="#me0014f8c7c" x="217.855317" y="98.75568" style="fill: #1f78b4; stroke: #1f78b4"/>
     <use xlink:href="#me0014f8c7c" x="273.440016" y="94.721502" style="fill: #1f78b4; stroke: #1f78b4"/>
     <use xlink:href="#me0014f8c7c" x="401.712397" y="142.123098" style="fill: #1f78b4; stroke: #1f78b4"/>
     <use xlink:href="#me0014f8c7c" x="215.717444" y="114.892394" style="fill: #1f78b4; stroke: #1f78b4"/>
     <use xlink:href="#me0014f8c7c" x="217.855317" y="151.2" style="fill: #1f78b4; stroke: #1f78b4"/>
     <use xlink:href="#me0014f8c7c" x="245.647667" y="168.345258" style="fill: #1f78b4; stroke: #1f78b4"/>
     <use xlink:href="#me0014f8c7c" x="277.715762" y="270.208264" style="fill: #1f78b4; stroke: #1f78b4"/>
     <use xlink:href="#me0014f8c7c" x="192.200841" y="167.336714" style="fill: #1f78b4; stroke: #1f78b4"/>
     <use xlink:href="#me0014f8c7c" x="164.408492" y="268.191175" style="fill: #1f78b4; stroke: #1f78b4"/>
     <use xlink:href="#me0014f8c7c" x="162.270619" y="95.730046" style="fill: #1f78b4; stroke: #1f78b4"/>
     <use xlink:href="#me0014f8c7c" x="44.687603" y="140.106009" style="fill: #1f78b4; stroke: #1f78b4"/>
    </g>
   </g>
  </g>
 </g>
 <defs>
  <clipPath id="p62c5a5e5a7">
   <rect x="7.2" y="7.2" width="432" height="288"/>
  </clipPath>
 </defs>
</svg>
