<?xml version="1.0" encoding="utf-8" standalone="no"?>
<!DOCTYPE svg PUBLIC "-//W3C//DTD SVG 1.1//EN"
  "http://www.w3.org/Graphics/SVG/1.1/DTD/svg11.dtd">
<svg xmlns:xlink="http://www.w3.org/1999/xlink" width="446.4pt" height="302.4pt" viewBox="0 0 446.4 302.4" xmlns="http://www.w3.org/2000/svg" version="1.1">
 <metadata>
  <rdf:RDF xmlns:dc="http://purl.org/dc/elements/1.1/" xmlns:cc="http://creativecommons.org/ns#" xmlns:rdf="http://www.w3.org/1999/02/22-rdf-syntax-ns#">
   <cc:Work>
    <dc:type rdf:resource="http://purl.org/dc/dcmitype/StillImage"/>
    <dc:date>2022-08-11T15:59:35.974390</dc:date>
    <dc:format>image/svg+xml</dc:format>
    <dc:creator>
     <cc:Agent>
      <dc:title>Matplotlib v3.5.2, https://matplotlib.org/</dc:title>
     </cc:Agent>
    </dc:creator>
   </cc:Work>
  </rdf:RDF>
 </metadata>
 <defs>
  <style type="text/css">*{stroke-linejoin: round; stroke-linecap: butt}</style>
 </defs>
 <g id="figure_1">
  <g id="patch_1">
   <path d="M 0 302.4 
L 446.4 302.4 
L 446.4 0 
L 0 0 
z
" style="fill: #ffffff"/>
  </g>
  <g id="axes_1">
   <g id="LineCollection_1">
    <path d="M 156.372282 48.644491 
L 161.864971 64.000396 
" clip-path="url(#p967b1b94b3)" style="fill: none; stroke: #000000"/>
    <path d="M 156.372282 48.644491 
L 158.203179 42.063389 
" clip-path="url(#p967b1b94b3)" style="fill: none; stroke: #000000"/>
    <path d="M 161.864971 64.000396 
L 171.019453 51.935042 
" clip-path="url(#p967b1b94b3)" style="fill: none; stroke: #000000"/>
    <path d="M 161.864971 64.000396 
L 154.541386 68.387798 
" clip-path="url(#p967b1b94b3)" style="fill: none; stroke: #000000"/>
    <path d="M 154.541386 32.191736 
L 158.203179 42.063389 
" clip-path="url(#p967b1b94b3)" style="fill: none; stroke: #000000"/>
    <path d="M 171.019453 51.935042 
L 178.343039 37.675987 
" clip-path="url(#p967b1b94b3)" style="fill: none; stroke: #000000"/>
    <path d="M 154.541386 68.387798 
L 167.357661 89.227954 
" clip-path="url(#p967b1b94b3)" style="fill: none; stroke: #000000"/>
    <path d="M 154.541386 68.387798 
L 110.599873 73.872049 
" clip-path="url(#p967b1b94b3)" style="fill: none; stroke: #000000"/>
    <path d="M 200.313795 135.29567 
L 192.99021 145.167323 
" clip-path="url(#p967b1b94b3)" style="fill: none; stroke: #000000"/>
    <path d="M 200.313795 135.29567 
L 180.173935 113.358662 
" clip-path="url(#p967b1b94b3)" style="fill: none; stroke: #000000"/>
    <path d="M 192.99021 145.167323 
L 249.747997 171.491732 
" clip-path="url(#p967b1b94b3)" style="fill: none; stroke: #000000"/>
    <path d="M 192.99021 145.167323 
L 176.512142 149.554724 
" clip-path="url(#p967b1b94b3)" style="fill: none; stroke: #000000"/>
    <path d="M 167.357661 89.227954 
L 180.173935 113.358662 
" clip-path="url(#p967b1b94b3)" style="fill: none; stroke: #000000"/>
    <path d="M 249.747997 171.491732 
L 297.351303 204.397243 
" clip-path="url(#p967b1b94b3)" style="fill: none; stroke: #000000"/>
    <path d="M 249.747997 171.491732 
L 229.608137 217.559447 
" clip-path="url(#p967b1b94b3)" style="fill: none; stroke: #000000"/>
    <path d="M 297.351303 204.397243 
L 401.712397 184.653936 
" clip-path="url(#p967b1b94b3)" style="fill: none; stroke: #000000"/>
    <path d="M 229.608137 217.559447 
L 229.608137 229.624801 
" clip-path="url(#p967b1b94b3)" style="fill: none; stroke: #000000"/>
    <path d="M 229.608137 229.624801 
L 233.26993 231.818502 
" clip-path="url(#p967b1b94b3)" style="fill: none; stroke: #000000"/>
    <path d="M 229.608137 229.624801 
L 218.622759 235.109053 
" clip-path="url(#p967b1b94b3)" style="fill: none; stroke: #000000"/>
    <path d="M 233.26993 231.818502 
L 240.593516 236.205903 
" clip-path="url(#p967b1b94b3)" style="fill: none; stroke: #000000"/>
    <path d="M 233.26993 231.818502 
L 231.439034 235.109053 
" clip-path="url(#p967b1b94b3)" style="fill: none; stroke: #000000"/>
    <path d="M 244.255308 243.883856 
L 244.255308 254.852359 
" clip-path="url(#p967b1b94b3)" style="fill: none; stroke: #000000"/>
    <path d="M 244.255308 243.883856 
L 240.593516 236.205903 
" clip-path="url(#p967b1b94b3)" style="fill: none; stroke: #000000"/>
    <path d="M 244.255308 254.852359 
L 249.747997 255.94921 
" clip-path="url(#p967b1b94b3)" style="fill: none; stroke: #000000"/>
    <path d="M 244.255308 254.852359 
L 189.328417 263.627162 
" clip-path="url(#p967b1b94b3)" style="fill: none; stroke: #000000"/>
    <path d="M 189.328417 263.627162 
L 191.159313 270.208264 
" clip-path="url(#p967b1b94b3)" style="fill: none; stroke: #000000"/>
    <path d="M 189.328417 263.627162 
L 180.173935 263.627162 
" clip-path="url(#p967b1b94b3)" style="fill: none; stroke: #000000"/>
    <path d="M 200.313795 238.399604 
L 158.203179 243.883856 
" clip-path="url(#p967b1b94b3)" style="fill: none; stroke: #000000"/>
    <path d="M 200.313795 238.399604 
L 218.622759 235.109053 
" clip-path="url(#p967b1b94b3)" style="fill: none; stroke: #000000"/>
    <path d="M 176.512142 149.554724 
L 158.203179 157.232677 
" clip-path="url(#p967b1b94b3)" style="fill: none; stroke: #000000"/>
    <path d="M 158.203179 157.232677 
L 160.034075 164.91063 
" clip-path="url(#p967b1b94b3)" style="fill: none; stroke: #000000"/>
    <path d="M 158.203179 157.232677 
L 112.430769 155.038976 
" clip-path="url(#p967b1b94b3)" style="fill: none; stroke: #000000"/>
    <path d="M 112.430769 155.038976 
L 112.430769 150.651575 
" clip-path="url(#p967b1b94b3)" style="fill: none; stroke: #000000"/>
    <path d="M 112.430769 155.038976 
L 97.783598 155.038976 
" clip-path="url(#p967b1b94b3)" style="fill: none; stroke: #000000"/>
    <path d="M 97.783598 155.038976 
L 97.783598 153.942126 
" clip-path="url(#p967b1b94b3)" style="fill: none; stroke: #000000"/>
    <path d="M 97.783598 155.038976 
L 64.827463 158.329527 
" clip-path="url(#p967b1b94b3)" style="fill: none; stroke: #000000"/>
    <path d="M 64.827463 158.329527 
L 44.687603 144.070473 
" clip-path="url(#p967b1b94b3)" style="fill: none; stroke: #000000"/>
    <path d="M 64.827463 158.329527 
L 55.672982 164.91063 
" clip-path="url(#p967b1b94b3)" style="fill: none; stroke: #000000"/>
   </g>
   <g id="PathCollection_1">
    <defs>
     <path id="m4a6959b968" d="M 0 1.581139 
C 0.419323 1.581139 0.821528 1.41454 1.118034 1.118034 
C 1.41454 0.821528 1.581139 0.419323 1.581139 0 
C 1.581139 -0.419323 1.41454 -0.821528 1.118034 -1.118034 
C 0.821528 -1.41454 0.419323 -1.581139 0 -1.581139 
C -0.419323 -1.581139 -0.821528 -1.41454 -1.118034 -1.118034 
C -1.41454 -0.821528 -1.581139 -0.419323 -1.581139 0 
C -1.581139 0.419323 -1.41454 0.821528 -1.118034 1.118034 
C -0.821528 1.41454 -0.419323 1.581139 0 1.581139 
z
" style="stroke: #1f78b4"/>
    </defs>
    <g clip-path="url(#p967b1b94b3)">
     <use xlink:href="#m4a6959b968" x="156.372282" y="48.644491" style="fill: #1f78b4; stroke: #1f78b4"/>
     <use xlink:href="#m4a6959b968" x="161.864971" y="64.000396" style="fill: #1f78b4; stroke: #1f78b4"/>
     <use xlink:href="#m4a6959b968" x="154.541386" y="32.191736" style="fill: #1f78b4; stroke: #1f78b4"/>
     <use xlink:href="#m4a6959b968" x="158.203179" y="42.063389" style="fill: #1f78b4; stroke: #1f78b4"/>
     <use xlink:href="#m4a6959b968" x="171.019453" y="51.935042" style="fill: #1f78b4; stroke: #1f78b4"/>
     <use xlink:href="#m4a6959b968" x="178.343039" y="37.675987" style="fill: #1f78b4; stroke: #1f78b4"/>
     <use xlink:href="#m4a6959b968" x="154.541386" y="68.387798" style="fill: #1f78b4; stroke: #1f78b4"/>
     <use xlink:href="#m4a6959b968" x="200.313795" y="135.29567" style="fill: #1f78b4; stroke: #1f78b4"/>
     <use xlink:href="#m4a6959b968" x="192.99021" y="145.167323" style="fill: #1f78b4; stroke: #1f78b4"/>
     <use xlink:href="#m4a6959b968" x="167.357661" y="89.227954" style="fill: #1f78b4; stroke: #1f78b4"/>
     <use xlink:href="#m4a6959b968" x="180.173935" y="113.358662" style="fill: #1f78b4; stroke: #1f78b4"/>
     <use xlink:href="#m4a6959b968" x="249.747997" y="171.491732" style="fill: #1f78b4; stroke: #1f78b4"/>
     <use xlink:href="#m4a6959b968" x="297.351303" y="204.397243" style="fill: #1f78b4; stroke: #1f78b4"/>
     <use xlink:href="#m4a6959b968" x="401.712397" y="184.653936" style="fill: #1f78b4; stroke: #1f78b4"/>
     <use xlink:href="#m4a6959b968" x="229.608137" y="217.559447" style="fill: #1f78b4; stroke: #1f78b4"/>
     <use xlink:href="#m4a6959b968" x="229.608137" y="229.624801" style="fill: #1f78b4; stroke: #1f78b4"/>
     <use xlink:href="#m4a6959b968" x="233.26993" y="231.818502" style="fill: #1f78b4; stroke: #1f78b4"/>
     <use xlink:href="#m4a6959b968" x="244.255308" y="243.883856" style="fill: #1f78b4; stroke: #1f78b4"/>
     <use xlink:href="#m4a6959b968" x="244.255308" y="254.852359" style="fill: #1f78b4; stroke: #1f78b4"/>
     <use xlink:href="#m4a6959b968" x="240.593516" y="236.205903" style="fill: #1f78b4; stroke: #1f78b4"/>
     <use xlink:href="#m4a6959b968" x="249.747997" y="255.94921" style="fill: #1f78b4; stroke: #1f78b4"/>
     <use xlink:href="#m4a6959b968" x="189.328417" y="263.627162" style="fill: #1f78b4; stroke: #1f78b4"/>
     <use xlink:href="#m4a6959b968" x="191.159313" y="270.208264" style="fill: #1f78b4; stroke: #1f78b4"/>
     <use xlink:href="#m4a6959b968" x="180.173935" y="263.627162" style="fill: #1f78b4; stroke: #1f78b4"/>
     <use xlink:href="#m4a6959b968" x="231.439034" y="235.109053" style="fill: #1f78b4; stroke: #1f78b4"/>
     <use xlink:href="#m4a6959b968" x="200.313795" y="238.399604" style="fill: #1f78b4; stroke: #1f78b4"/>
     <use xlink:href="#m4a6959b968" x="158.203179" y="243.883856" style="fill: #1f78b4; stroke: #1f78b4"/>
     <use xlink:href="#m4a6959b968" x="218.622759" y="235.109053" style="fill: #1f78b4; stroke: #1f78b4"/>
     <use xlink:href="#m4a6959b968" x="176.512142" y="149.554724" style="fill: #1f78b4; stroke: #1f78b4"/>
     <use xlink:href="#m4a6959b968" x="158.203179" y="157.232677" style="fill: #1f78b4; stroke: #1f78b4"/>
     <use xlink:href="#m4a6959b968" x="160.034075" y="164.91063" style="fill: #1f78b4; stroke: #1f78b4"/>
     <use xlink:href="#m4a6959b968" x="112.430769" y="155.038976" style="fill: #1f78b4; stroke: #1f78b4"/>
     <use xlink:href="#m4a6959b968" x="112.430769" y="150.651575" style="fill: #1f78b4; stroke: #1f78b4"/>
     <use xlink:href="#m4a6959b968" x="97.783598" y="155.038976" style="fill: #1f78b4; stroke: #1f78b4"/>
     <use xlink:href="#m4a6959b968" x="97.783598" y="153.942126" style="fill: #1f78b4; stroke: #1f78b4"/>
     <use xlink:href="#m4a6959b968" x="64.827463" y="158.329527" style="fill: #1f78b4; stroke: #1f78b4"/>
     <use xlink:href="#m4a6959b968" x="44.687603" y="144.070473" style="fill: #1f78b4; stroke: #1f78b4"/>
     <use xlink:href="#m4a6959b968" x="55.672982" y="164.91063" style="fill: #1f78b4; stroke: #1f78b4"/>
     <use xlink:href="#m4a6959b968" x="110.599873" y="73.872049" style="fill: #1f78b4; stroke: #1f78b4"/>
    </g>
   </g>
  </g>
 </g>
 <defs>
  <clipPath id="p967b1b94b3">
   <rect x="7.2" y="7.2" width="432" height="288"/>
  </clipPath>
 </defs>
</svg>
